<svg width="35" height="35" xmlns="http://www.w3.org/2000/svg"><path fill="none" id="canvas_background" d="M-1-1h37v37H-1z"/><g fill="#fff" stroke="null"><path id="svg_1" d="M33.058 20.237c-.478 0-.865.417-.865.932v8.271c-.002 1.543-1.162 2.794-2.595 2.795H5.325c-1.432-.001-2.593-1.252-2.595-2.795V5.163c.002-1.542 1.163-2.793 2.595-2.795h7.681c.478 0 .865-.417.865-.931s-.387-.932-.865-.932h-7.68C2.937.508 1.002 2.592 1 5.163v24.278c.003 2.571 1.938 4.655 4.325 4.658h24.273c2.388-.003 4.322-2.087 4.325-4.658v-8.272c0-.515-.387-.932-.865-.932zm0 0"/><path id="svg_2" d="M31.257 2.087a4.308 4.308 0 0 0-6.22 0L7.604 20.044c-.12.123-.206.275-.251.443L5.06 29.012c-.094.35.001.723.25.98a.96.96 0 0 0 .952.258l8.278-2.361a.971.971 0 0 0 .43-.259L32.404 9.674c1.715-1.77 1.715-4.636 0-6.406l-1.147-1.18zM9.732 20.697l14.27-14.695 4.601 4.74-14.27 14.695-4.601-4.74zm-.92 1.9l3.677 3.788-5.085 1.45 1.409-5.237zM31.023 8.25l-1.036 1.068-4.603-4.74 1.037-1.067a2.393 2.393 0 0 1 3.455 0l1.147 1.18a2.573 2.573 0 0 1 0 3.56zm0 0"/></g></svg>