<svg width="35" height="35" xmlns="http://www.w3.org/2000/svg">

 <g>
  <title>background</title>
  <rect fill="none" id="canvas_background" height="37" width="37" y="-1" x="-1"/>
 </g>
 <g>
  <title>Layer 1</title>
  <path fill="#fff" stroke="null" id="svg_1" d="m33.058101,20.237056c-0.477808,0 -0.865057,0.417047 -0.865057,0.931623l0,8.271792c-0.001689,1.543 -1.16242,2.793413 -2.59517,2.794869l-24.272609,0c-1.43275,-0.001456 -2.59348,-1.251868 -2.59517,-2.794869l0,-24.277147c0.001689,-1.542637 1.16242,-2.793049 2.59517,-2.794869l7.680756,0c0.477809,0 0.865057,-0.417048 0.865057,-0.931623c0,-0.514213 -0.387248,-0.931623 -0.865057,-0.931623l-7.680756,0c-2.387691,0.002911 -4.32258,2.086689 -4.325283,4.658115l0,24.277511c0.002703,2.571425 1.937592,4.655203 4.325283,4.658115l24.272609,0c2.387692,-0.002911 4.32258,-2.08669 4.325283,-4.658115l0,-8.272157c0,-0.514576 -0.387248,-0.931623 -0.865057,-0.931623zm0,0"/>
  <path fill="#fff" stroke="null" id="svg_2" d="m31.257187,2.087319c-1.717484,-1.76882 -4.501954,-1.76882 -6.219438,0l-17.435192,17.956334c-0.119487,0.123058 -0.205762,0.275604 -0.250809,0.443089l-2.292777,8.524856c-0.094292,0.349517 0.001527,0.723804 0.250427,0.980538c0.249281,0.256339 0.612705,0.355022 0.952079,0.258304l8.277441,-2.361703c0.162625,-0.046393 0.310743,-0.135247 0.430231,-0.258306l17.43481,-17.956727c1.714812,-1.77 1.714812,-4.635339 0,-6.405339l-1.14677,-1.181048zm-21.52524,18.61055l14.269356,-14.696265l4.601972,4.739526l-14.269738,14.696264l-4.60159,-4.739525zm-0.919249,1.899742l3.676615,3.786903l-5.085647,1.451148l1.409032,-5.238051zm22.209332,-14.34714l-1.036446,1.067425l-4.602353,-4.739919l1.036827,-1.067425c0.953988,-0.982503 2.500831,-0.982503 3.45482,0l1.147152,1.181049c0.952461,0.983682 0.952461,2.575581 0,3.55887zm0,0"/>
 </g>
</svg>